<?xml version="1.0" encoding="utf-8"?>
<svg xmlns="http://www.w3.org/2000/svg" viewBox="0 0 128 128" fill="#ffffff"><path d="M 34 1 C 32.8 1 31.699219 1.7007813 31.199219 2.8007812 L 1.1992188 72.800781 C 1.0992188 73.200781 1 73.6 1 74 L 1 124 C 1 125.7 2.3 127 4 127 L 64 127 C 65.7 127 67 125.7 67 124 C 67 122.3 65.7 121 64 121 L 7 121 L 7 74.599609 L 36 7 L 109.5 7 L 97.5 35 L 83 35 C 81.8 35 80.699219 35.700781 80.199219 36.800781 L 74.199219 50.800781 C 73.799219 51.700781 73.9 52.799609 74.5 53.599609 C 75.1 54.499609 76 55 77 55 L 88.900391 55 L 81.300781 72.800781 C 81.100781 73.200781 81 73.6 81 74 L 81 124 C 81 125.7 82.3 127 84 127 L 124 127 C 125.7 127 127 125.7 127 124 L 127 4 C 127 2.3 125.7 1 124 1 L 34 1 z M 45.400391 21 C 44.200391 21 43.099219 21.700781 42.699219 22.800781 L 21.300781 72.800781 C 20.900781 73.700781 20.999609 74.799609 21.599609 75.599609 C 22.099609 76.499609 23 77 24 77 L 45.400391 77 L 67 77 C 68.7 77 70 75.7 70 74 C 70 72.3 68.7 71 67 71 L 48.400391 71 L 48.400391 27 L 88.400391 27 C 90.100391 27 91.400391 25.7 91.400391 24 C 91.400391 22.3 90.100391 21 88.400391 21 L 45.400391 21 z M 29 99 C 27.3 99 26 100.3 26 102 C 26 103.7 27.3 105 29 105 L 59 105 C 60.7 105 62 103.7 62 102 C 62 100.3 60.7 99 59 99 L 29 99 z" fill="#ffffff"/></svg>
