<?xml version="1.0" encoding="utf-8"?>
<svg xmlns="http://www.w3.org/2000/svg" viewBox="0 0 50 50" fill="#ffffff"><path d="M 9 4 C 6.239 4 4 6.239 4 9 L 4 41 C 4 43.761 6.239 46 9 46 L 41 46 C 43.761 46 46 43.761 46 41 L 46 9 C 46 6.239 43.761 4 41 4 L 9 4 z M 25 12 C 29.35 12 32.460547 12.660703 34.310547 13.220703 C 35.100547 13.460703 35.77 13.959141 36.25 14.619141 C 36.72 15.279141 37 16.100937 37 16.960938 L 37 22 L 38 22 L 38 27 L 37 27 L 37 38.519531 C 37 39.339531 36.349062 40 35.539062 40 L 34.619141 40 C 33.819141 40 33.169922 39.339531 33.169922 38.519531 L 33.169922 38.070312 L 16.830078 38.070312 L 16.830078 38.519531 C 16.830078 39.339531 16.180859 40 15.380859 40 L 14.460938 40 C 13.650938 40 13 39.339531 13 38.519531 L 13 27 L 12 27 L 12 22 L 13 22 L 13 16.960938 C 13 15.240937 14.109453 13.700703 15.689453 13.220703 C 17.539453 12.660703 20.65 12 25 12 z M 15 18 L 15 27 L 24 27 L 24 18 L 15 18 z M 26 18 L 26 27 L 35 27 L 35 18 L 26 18 z M 17.5 31 A 1.5 1.5 0 0 0 16 32.5 A 1.5 1.5 0 0 0 17.5 34 A 1.5 1.5 0 0 0 19 32.5 A 1.5 1.5 0 0 0 17.5 31 z M 32.5 31 A 1.5 1.5 0 0 0 31 32.5 A 1.5 1.5 0 0 0 32.5 34 A 1.5 1.5 0 0 0 34 32.5 A 1.5 1.5 0 0 0 32.5 31 z" fill="#ffffff"/></svg>
