<?xml version="1.0" encoding="utf-8"?>
<svg xmlns="http://www.w3.org/2000/svg" viewBox="0 0 50 50" fill="#ffffff"><path d="M 14.939453 1 A 5 5 0 0 0 14.939453 11 A 5 5 0 0 0 14.939453 1 z M 37.939453 1 A 5 5 0 0 0 37.939453 11 A 5 5 0 0 0 37.939453 1 z M 44.75 4.4101562 C 44.88 4.9201562 44.939453 5.45 44.939453 6 C 44.939453 7.39 44.530078 8.6892969 43.830078 9.7792969 L 44 11 L 48 11 C 48 9.66 47.3 5.6801562 44.75 4.4101562 z M 31.109375 4.4804688 C 28.669375 5.8304687 28 9.68 28 11 L 32 11 L 32.150391 9.9394531 C 31.390391 8.8194531 30.939453 7.46 30.939453 6 C 30.939453 5.48 30.999375 4.9704687 31.109375 4.4804688 z M 9.9375 13 C 7.3005 13 4.9722188 14.721187 4.1992188 17.242188 L 1.6699219 25.5 C 1.3499219 26.56 1.94 27.68 3 28 C 4.06 28.32 5.17 27.729922 5.5 26.669922 L 9 18 L 9 24 L 21 24 L 21 18 L 24.390625 26.669922 C 24.670625 27.597422 25.562207 28.165078 26.484375 28.078125 C 27.152655 28.110707 27.792895 27.811136 28.179688 27.279297 L 31.050781 18.679688 C 31.190781 18.259688 31.58 18 32 18 C 32.11 18 32.220312 18.020781 32.320312 18.050781 C 32.840313 18.230781 33.119219 18.790312 32.949219 19.320312 L 29.783203 29.707031 C 29.588203 30.350031 30.068234 31 30.740234 31 L 43.259766 31 C 43.930766 31 44.412797 30.350031 44.216797 29.707031 L 41.050781 19.320312 C 40.880781 18.790313 41.159687 18.230781 41.679688 18.050781 C 41.779687 18.020781 41.89 18 42 18 C 42.42 18 42.809219 18.259688 42.949219 18.679688 L 45.890625 27.509766 C 46.400625 28.009766 47.160859 28.22 47.880859 28 C 48.940859 27.68 49.530937 26.56 49.210938 25.5 L 46.679688 17.240234 C 45.909688 14.720234 43.579453 13 40.939453 13 L 32.939453 13 C 30.299453 13 27.969219 14.720234 27.199219 17.240234 L 26.439453 19.720703 L 25.679688 17.242188 C 24.906688 14.721188 22.580359 13 19.943359 13 L 9.9375 13 z M 9 26 L 9 31 L 21 31 L 21 26 L 9 26 z M 9 33 L 9 41 C 9 42.1 9.9 43 11 43 C 12.1 43 13 42.1 13 41 L 13 33 L 9 33 z M 17 33 L 17 41 C 17 42.1 17.9 43 19 43 C 20.1 43 21 42.1 21 41 L 21 33 L 17 33 z M 32 33 L 32 41 C 32 42.105 32.895 43 34 43 C 35.105 43 36 42.105 36 41 L 36 33 L 32 33 z M 38 33 L 38 41 C 38 42.105 38.895 43 40 43 C 41.105 43 42 42.105 42 41 L 42 33 L 38 33 z M 46.96875 36.162109 C 46.71 36.187109 46.459063 36.304766 46.289062 36.509766 C 46.139062 36.689766 46.060547 36.910391 46.060547 37.150391 C 46.060547 37.450391 46.189922 37.729922 46.419922 37.919922 C 47.469922 38.779922 48 39.650234 48 40.490234 C 48 41.040234 48.45 41.480469 49 41.480469 L 49.009766 41.480469 C 49.269766 41.480469 49.520938 41.379453 49.710938 41.189453 C 49.900937 40.999453 50 40.740469 50 40.480469 C 49.99 39.020469 49.189219 37.599141 47.699219 36.369141 C 47.494219 36.204141 47.2275 36.137109 46.96875 36.162109 z M 3.0214844 36.173828 C 2.7627344 36.150078 2.4940625 36.220625 2.2890625 36.390625 C 0.7890625 37.620625 0 39.04 0 40.5 C 0 41.05 0.45 41.5 1 41.5 C 1.55 41.5 2 41.05 2 40.5 C 2 39.66 2.5205469 38.789687 3.5605469 37.929688 C 3.9905469 37.579688 4.0492187 36.939531 3.6992188 36.519531 C 3.5292187 36.314531 3.2802344 36.197578 3.0214844 36.173828 z M 2.859375 42.878906 C 2.600625 42.905156 2.3496875 43.025469 2.1796875 43.230469 C 2.0096875 43.440469 1.9309375 43.700938 1.9609375 43.960938 C 1.9909375 44.230938 2.1103125 44.470625 2.3203125 44.640625 C 3.2703125 45.420625 4.51 46.139063 6 46.789062 C 6.13 46.839062 6.2603906 46.869141 6.4003906 46.869141 C 6.8003906 46.869141 7.1603125 46.639531 7.3203125 46.269531 C 7.3703125 46.149531 7.4003906 46.020859 7.4003906 45.880859 C 7.4003906 45.480859 7.1707813 45.110937 6.8007812 44.960938 C 5.4807813 44.380938 4.3998438 43.749844 3.5898438 43.089844 C 3.3848438 42.919844 3.118125 42.852656 2.859375 42.878906 z M 45.310547 43.96875 C 45.181641 43.982656 45.054453 44.022344 44.939453 44.089844 C 44.939453 44.089844 44.929688 44.089609 44.929688 44.099609 C 43.959688 44.649609 42.790937 45.170859 41.460938 45.630859 C 40.940937 45.810859 40.659844 46.380391 40.839844 46.900391 C 40.979844 47.310391 41.359063 47.580078 41.789062 47.580078 C 41.899062 47.580078 42.009375 47.559531 42.109375 47.519531 C 43.569375 47.019531 44.849453 46.450313 45.939453 45.820312 C 46.249453 45.650313 46.439453 45.310938 46.439453 44.960938 C 46.439453 44.780938 46.390547 44.610937 46.310547 44.460938 C 46.108047 44.115938 45.697266 43.927031 45.310547 43.96875 z M 11.945312 46.693359 C 11.561406 46.765547 11.230625 47.059219 11.140625 47.449219 C 11.020625 47.989219 11.360391 48.530391 11.900391 48.650391 C 13.150391 48.930391 14.500156 49.180859 15.910156 49.380859 C 15.960156 49.390859 16.000781 49.390625 16.050781 49.390625 C 16.550781 49.390625 16.969062 49.019297 17.039062 48.529297 C 17.049063 48.479297 17.050781 48.430859 17.050781 48.380859 C 17.050781 47.880859 16.689219 47.470391 16.199219 47.400391 L 16.189453 47.400391 C 14.849453 47.210391 13.549844 46.969219 12.339844 46.699219 C 12.207344 46.669219 12.073281 46.669297 11.945312 46.693359 z M 35.800781 47.080078 C 34.560781 47.300078 33.260156 47.490625 31.910156 47.640625 C 31.640156 47.670625 31.410234 47.79 31.240234 48 C 31.070234 48.21 30.989531 48.470234 31.019531 48.740234 C 31.079531 49.250234 31.499531 49.630859 32.019531 49.630859 C 32.049531 49.630859 32.089141 49.629141 32.119141 49.619141 C 33.529141 49.469141 34.890391 49.279063 36.150391 49.039062 C 36.630391 48.959062 36.980469 48.540547 36.980469 48.060547 C 36.970469 48.000547 36.970937 47.940859 36.960938 47.880859 C 36.860938 47.350859 36.340781 46.980078 35.800781 47.080078 z M 22.070312 47.939453 C 21.500312 47.909453 21.049297 48.340625 21.029297 48.890625 C 21.019297 49.160625 21.109063 49.409375 21.289062 49.609375 C 21.469063 49.809375 21.720469 49.919688 21.980469 49.929688 C 22.960469 49.979687 23.98 50 25 50 C 25.33 50 25.660469 50.000234 25.980469 49.990234 C 26.010469 49.990234 26.030547 50.000234 26.060547 49.990234 C 26.590547 49.980234 27.019297 49.539766 27.029297 49.009766 L 27.029297 48.980469 C 27.019297 48.440469 26.569297 47.990234 26.029297 47.990234 L 26.009766 47.990234 C 25.709766 48.000234 25.39 48 25 48 C 24.04 48 23.050313 47.979453 22.070312 47.939453 z" fill="#ffffff"/></svg>
