<?xml version="1.0" encoding="utf-8"?>
<svg xmlns="http://www.w3.org/2000/svg" style="color:rgba(112, 112, 112, 0.826)" viewBox="0 5 50 50" fill="#fffffe"><path d="M 25 2 C 13.746094 2 4.546875 10.871094 4.03125 22 L 3 22 C 1.90625 22 1 22.90625 1 24 L 1 30 C 1 31.09375 1.90625 32 3 32 L 4 32 L 4 41.5 L 4.40625 41.8125 C 4.40625 41.8125 12.882813 48 25 48 C 37.117188 48 45.59375 41.8125 45.59375 41.8125 L 46 41.5 L 46 32 L 47 32 C 48.09375 32 49 31.09375 49 30 L 49 24 C 49 22.90625 48.09375 22 47 22 L 45.96875 22 C 45.453125 10.871094 36.253906 2 25 2 Z M 25 4 C 35.503906 4 44 12.496094 44 23 L 44 40.4375 C 42.964844 41.152344 35.625 46 25 46 C 14.375 46 7.035156 41.152344 6 40.4375 L 6 23 C 6 12.496094 14.496094 4 25 4 Z M 25 11 C 18.875 11 14.609375 12.535156 11.875 14.84375 C 9.140625 17.152344 8 20.210938 8 23 L 8 29.1875 C 8 32.445313 9.765625 35.261719 12.75 37.125 C 15.734375 38.988281 19.914063 40 25 40 C 30.085938 40 34.265625 38.988281 37.25 37.125 C 39.878906 35.480469 41.542969 33.085938 41.90625 30.3125 C 41.953125 29.941406 42 29.574219 42 29.1875 L 42 23 C 42 20.246094 40.855469 17.191406 38.125 14.875 C 35.394531 12.558594 31.128906 11 25 11 Z M 25 13 C 30.789063 13 34.523438 14.464844 36.8125 16.40625 C 39.101563 18.347656 40 20.792969 40 23 L 40 29.1875 C 40 29.390625 39.984375 29.585938 39.96875 29.78125 C 39.929688 29.894531 39.773438 30.300781 39.28125 30.8125 C 38.714844 31.402344 37.808594 32 36.15625 32 L 31.71875 32 C 31.371094 31.402344 30.738281 31 30 31 C 28.894531 31 28 31.894531 28 33 C 28 34.105469 28.894531 35 30 35 C 30.738281 35 31.371094 34.597656 31.71875 34 L 36.15625 34 C 36.960938 34 37.65625 33.859375 38.28125 33.65625 C 37.714844 34.300781 37.039063 34.90625 36.1875 35.4375 C 33.648438 37.023438 29.820313 38 25 38 C 20.179688 38 16.351563 37.023438 13.8125 35.4375 C 11.273438 33.851563 10 31.746094 10 29.1875 L 10 23 C 10 20.75 10.902344 18.304688 13.1875 16.375 C 15.472656 14.445313 19.207031 13 25 13 Z M 3 24 L 4 24 L 4 30 L 3 30 Z M 46 24 L 47 24 L 47 30 L 46 30 Z"  fill="currentColor"/></svg>
