<?xml version="1.0" encoding="utf-8"?>
<svg xmlns="http://www.w3.org/2000/svg" viewBox="0 0 50 50" fill="#ffffff"><path d="M 15 0 C 8.953125 0 4 4.953125 4 11 C 3.996094 11.359375 4.183594 11.695313 4.496094 11.878906 C 4.808594 12.058594 5.191406 12.058594 5.503906 11.878906 C 5.816406 11.695313 6.003906 11.359375 6 11 C 6 6.046875 10.046875 2 15 2 C 19.472656 2 23.191406 5.304688 23.875 9.59375 C 22.414063 8.007813 20.332031 7 18 7 C 13.570313 7 10 10.570313 10 15 C 9.996094 15.359375 10.183594 15.695313 10.496094 15.878906 C 10.808594 16.058594 11.191406 16.058594 11.503906 15.878906 C 11.816406 15.695313 12.003906 15.359375 12 15 C 12 11.628906 14.628906 9 18 9 C 21.371094 9 24 11.628906 24 15 C 23.160156 14.367188 22.125 14 21 14 C 18.253906 14 16 16.253906 16 19 C 15.996094 19.359375 16.183594 19.695313 16.496094 19.878906 C 16.808594 20.058594 17.191406 20.058594 17.503906 19.878906 C 17.816406 19.695313 18.003906 19.359375 18 19 C 18 17.34375 19.34375 16 21 16 C 22.65625 16 24 17.34375 24 19 C 24 19.03125 24 19.0625 24 19.09375 L 24 22 L 26 22 L 26 19.15625 C 26.003906 19.105469 26.003906 19.050781 26 19 C 26 17.34375 27.34375 16 29 16 C 30.65625 16 32 17.34375 32 19 C 31.996094 19.359375 32.183594 19.695313 32.496094 19.878906 C 32.808594 20.058594 33.191406 20.058594 33.503906 19.878906 C 33.816406 19.695313 34.003906 19.359375 34 19 C 34 16.253906 31.746094 14 29 14 C 27.875 14 26.839844 14.367188 26 15 C 26 11.628906 28.628906 9 32 9 C 35.371094 9 38 11.628906 38 15 C 37.996094 15.359375 38.183594 15.695313 38.496094 15.878906 C 38.808594 16.058594 39.191406 16.058594 39.503906 15.878906 C 39.816406 15.695313 40.003906 15.359375 40 15 C 40 10.570313 36.429688 7 32 7 C 29.667969 7 27.585938 8.007813 26.125 9.59375 C 26.808594 5.304688 30.527344 2 35 2 C 39.953125 2 44 6.046875 44 11 C 43.996094 11.359375 44.183594 11.695313 44.496094 11.878906 C 44.808594 12.058594 45.191406 12.058594 45.503906 11.878906 C 45.816406 11.695313 46.003906 11.359375 46 11 C 46 4.953125 41.046875 0 35 0 C 30.566406 0 26.734375 2.664063 25 6.46875 C 23.265625 2.664063 19.433594 0 15 0 Z M 8.8125 23 C 8.261719 23.050781 7.855469 23.542969 7.90625 24.09375 C 7.957031 24.644531 8.449219 25.050781 9 25 L 9.09375 25 C 10.007813 29.660156 17.09375 35 25 35 C 32.90625 35 39.992188 29.660156 40.90625 25 L 41 25 C 41.359375 25.003906 41.695313 24.816406 41.878906 24.503906 C 42.058594 24.191406 42.058594 23.808594 41.878906 23.496094 C 41.695313 23.183594 41.359375 22.996094 41 23 L 9 23 C 8.96875 23 8.9375 23 8.90625 23 C 8.875 23 8.84375 23 8.8125 23 Z M 20 35.34375 L 20 39 L 30 39 L 30 35.34375 C 28.410156 35.761719 26.730469 36 25 36 C 23.273438 36 21.589844 35.761719 20 35.34375 Z M 1 40 C 0.449219 40 0 40.445313 0 41 C 0 41.554688 0.449219 42 1 42 L 1.125 42 C 1.160156 42.15625 1.210938 42.316406 1.25 42.46875 C 2.527344 46.835938 6.667969 49.90625 11.3125 49.90625 L 38.6875 49.90625 C 43.332031 49.90625 47.492188 46.84375 48.78125 42.4375 C 48.816406 42.300781 48.84375 42.148438 48.875 42 L 49 42 C 49.554688 42 50 41.554688 50 41 C 50 40.445313 49.554688 40 49 40 Z" fill="#ffffff"/></svg>
