<?xml version="1.0" encoding="utf-8"?>
<svg xmlns="http://www.w3.org/2000/svg" viewBox="0 0 50 50" fill="#f7002d"><path d="M 47 0 L 3 0 C 1.347656 0 0 1.347656 0 3 L 0 47 C 0 48.652344 1.347656 50 3 50 L 47 50 C 48.652344 50 50 48.652344 50 47 L 50 3 C 50 1.347656 48.652344 0 47 0 Z M 11.761719 39.648438 C 11.5625 39.882813 11.28125 40 11 40 C 10.769531 40 10.539063 39.921875 10.351563 39.761719 C 9.933594 39.40625 9.882813 38.773438 10.238281 38.351563 C 10.273438 38.308594 14 33.867188 14 29.601563 C 14 27.625 13.1875 26.6875 12.246094 25.605469 C 11.191406 24.394531 10 23.023438 10 20.300781 C 10 15.390625 14.066406 10.554688 14.238281 10.351563 C 14.59375 9.929688 15.226563 9.878906 15.648438 10.238281 C 16.066406 10.59375 16.117188 11.226563 15.761719 11.648438 C 15.726563 11.691406 12 16.132813 12 20.300781 C 12 22.277344 12.8125 23.210938 13.753906 24.292969 C 14.808594 25.503906 16 26.875 16 29.601563 C 16 34.609375 11.933594 39.445313 11.761719 39.648438 Z M 23.761719 39.648438 C 23.5625 39.882813 23.28125 40 23 40 C 22.769531 40 22.539063 39.921875 22.351563 39.761719 C 21.933594 39.40625 21.882813 38.773438 22.238281 38.351563 C 22.273438 38.308594 26 33.867188 26 29.601563 C 26 27.625 25.1875 26.6875 24.246094 25.605469 C 23.191406 24.394531 22 23.023438 22 20.300781 C 22 15.390625 26.066406 10.554688 26.238281 10.351563 C 26.597656 9.933594 27.226563 9.878906 27.648438 10.238281 C 28.066406 10.59375 28.117188 11.226563 27.761719 11.648438 C 27.726563 11.691406 24 16.132813 24 20.300781 C 24 22.277344 24.8125 23.210938 25.753906 24.292969 C 26.808594 25.503906 28 26.875 28 29.601563 C 28 34.609375 23.933594 39.445313 23.761719 39.648438 Z M 35.761719 39.648438 C 35.5625 39.882813 35.28125 40 35 40 C 34.769531 40 34.539063 39.921875 34.351563 39.761719 C 33.933594 39.40625 33.882813 38.773438 34.238281 38.351563 C 34.273438 38.308594 38 33.867188 38 29.601563 C 38 27.625 37.1875 26.6875 36.246094 25.605469 C 35.191406 24.394531 34 23.023438 34 20.300781 C 34 15.390625 38.066406 10.554688 38.238281 10.351563 C 38.597656 9.933594 39.226563 9.878906 39.648438 10.238281 C 40.066406 10.59375 40.117188 11.226563 39.761719 11.648438 C 39.726563 11.691406 36 16.132813 36 20.300781 C 36 22.277344 36.8125 23.210938 37.753906 24.292969 C 38.808594 25.503906 40 26.875 40 29.601563 C 40 34.609375 35.933594 39.445313 35.761719 39.648438 Z" fill="#f7002d"/></svg>
