<?xml version="1.0" encoding="utf-8"?>
<svg xmlns="http://www.w3.org/2000/svg" style="color:rgba(112, 112, 112, 0.826)" viewBox="0 0 50 50" fill="#fffffe"><path d="M 17 2 A 1.0001 1.0001 0 0 0 16.888672 2.0058594 C 14.190451 2.0661429 12 4.2880185 12 7 C 12 9.699418 13.942714 12 16.375 12 C 16.975584 12 17.517181 11.905736 18 11.734375 L 18 38 L 17 38 A 1.0001 1.0001 0 1 0 17 40 C 17.554545 40 18 40.445455 18 41 C 18 41.554545 17.554545 42 17 42 L 16 42 A 1.0001 1.0001 0 0 0 15 43 L 15 47 A 1.0001 1.0001 0 0 0 16 48 L 34 48 A 1.0001 1.0001 0 0 0 35 47 L 35 43 A 1.0001 1.0001 0 0 0 34 42 L 33 42 C 32.445455 42 32 41.554545 32 41 C 32 40.445455 32.445455 40 33 40 A 1.0001 1.0001 0 0 0 33.099609 39.996094 A 1.0001 1.0001 0 0 0 33 38 L 32 38 L 32 11.734375 C 32.482819 11.905736 33.024416 12 33.625 12 C 36.057286 12 38 9.699418 38 7 C 38 4.2847346 35.804282 2.060961 33.101562 2.0058594 A 1.0001 1.0001 0 0 0 33 2 L 17 2 z M 17 4 C 19.734116 4 21.931892 6.1644187 21.994141 8.8828125 A 1.0001 1.0001 0 0 0 22.289062 9.7167969 A 1.0001 1.0001 0 0 0 22.294922 9.7226562 A 1.0001 1.0001 0 0 0 22.308594 9.7363281 A 1.0001 1.0001 0 0 0 23.158203 10 L 26.832031 10 A 1.0001 1.0001 0 0 0 27.720703 9.7070312 A 1.0001 1.0001 0 0 0 27.722656 9.7050781 A 1.0001 1.0001 0 0 0 27.728516 9.6992188 A 1.0001 1.0001 0 0 0 27.736328 9.6914062 A 1.0001 1.0001 0 0 0 28.005859 8.875 C 28.07216 6.1602896 30.268514 4 33 4 C 34.668484 4 36 5.3315161 36 7 C 36 8.718582 34.692714 10 33.625 10 C 32.883643 10 32.478768 9.8200017 32.277344 9.6503906 C 32.07592 9.4807796 32 9.3072511 32 9 C 32 8.4891084 32.119631 8.3226732 32.248047 8.2089844 C 32.376462 8.0952956 32.617334 8 33 8 A 1.0001 1.0001 0 1 0 33 6 C 32.277666 6 31.517209 6.1858294 30.921875 6.7128906 C 30.326541 7.2399518 30 8.0738916 30 9 L 30 38 L 20 38 L 20 9 C 20 8.0735359 19.671686 7.2379523 19.076172 6.7109375 C 18.480658 6.1839227 17.722032 6 17 6 A 1.0001 1.0001 0 1 0 17 8 C 17.382968 8 17.623717 8.095499 17.751953 8.2089844 C 17.880189 8.3224696 18 8.4884641 18 9 C 18 9.3072511 17.92408 9.4807796 17.722656 9.6503906 C 17.521232 9.8200017 17.116357 10 16.375 10 C 15.307286 10 14 8.718582 14 7 C 14 5.3315161 15.331516 4 17 4 z M 21.884766 4 L 28.115234 4 C 27.039603 5.0511548 26.305028 6.4444195 26.080078 8 L 23.919922 8 C 23.694972 6.4444195 22.960397 5.0511548 21.884766 4 z M 22.984375 11.986328 A 1.0001 1.0001 0 0 0 22 13 L 22 35 A 1.0001 1.0001 0 1 0 24 35 L 24 13 A 1.0001 1.0001 0 0 0 22.984375 11.986328 z M 26.984375 11.986328 A 1.0001 1.0001 0 0 0 26 13 L 26 35 A 1.0001 1.0001 0 1 0 28 35 L 28 13 A 1.0001 1.0001 0 0 0 26.984375 11.986328 z M 19.8125 40 L 30.1875 40 C 30.07397 40.314921 30 40.648054 30 41 A 1.0001 1.0001 0 0 0 30.294922 41.708984 C 30.322736 41.808666 30.36096 41.903656 30.396484 42 L 19.603516 42 C 19.63904 41.903656 19.677264 41.808666 19.705078 41.708984 A 1.0001 1.0001 0 0 0 20 41 C 20 40.648054 19.92603 40.314921 19.8125 40 z M 17 44 L 33 44 L 33 46 L 17 46 L 17 44 z" fill="currentColor"/></svg>
