<?xml version="1.0" encoding="utf-8"?>
<svg xmlns="http://www.w3.org/2000/svg" style="color:rgba(112, 112, 112, 0.826)" viewBox="0 0 50 50" fill="#fffffe"><path d="M 34 0.9375 C 27.984375 0.9375 23.054688 5.792969 22.9375 11.78125 C 22.359375 12.691406 14.691406 24.777344 8.65625 30.8125 L 8.6875 30.84375 C 8.605469 30.90625 8.3125 31.078125 8.125 31.5625 C 7.910156 32.117188 8.082031 33.050781 8.6875 33.65625 L 10.09375 35.0625 L 8.40625 36.75 C 6.679688 38.476563 5.910156 40.433594 5.96875 42.28125 C 6.027344 44.128906 6.855469 45.824219 8.125 47.03125 C 10.660156 49.445313 15.089844 50.003906 18.375 46.71875 L 32.09375 33 C 34.761719 30.332031 37.679688 30.882813 39.46875 32.625 C 40.363281 33.496094 40.941406 34.675781 40.96875 35.9375 C 40.996094 37.199219 40.515625 38.578125 39.125 39.96875 L 32.78125 46.3125 C 32.367188 46.726563 32.367188 47.398438 32.78125 47.8125 C 33.195313 48.226563 33.867188 48.226563 34.28125 47.8125 L 40.59375 41.46875 C 42.320313 39.742188 43.101563 37.761719 43.0625 35.90625 C 43.023438 34.050781 42.195313 32.347656 40.9375 31.125 C 39.679688 29.902344 37.941406 29.148438 36.09375 29.125 C 34.246094 29.101563 32.308594 29.816406 30.625 31.5 L 16.90625 45.21875 C 14.34375 47.78125 11.40625 47.226563 9.59375 45.5 C 8.6875 44.636719 8.101563 43.460938 8.0625 42.21875 C 8.023438 40.976563 8.484375 39.609375 9.875 38.21875 L 9.96875 38.15625 L 11.5625 36.5625 L 12.3125 37.28125 C 12.910156 37.878906 13.734375 38.105469 14.3125 37.9375 C 14.816406 37.792969 14.992188 37.460938 15.0625 37.375 L 15.125 37.4375 C 21.007813 31.550781 33.304688 23.648438 34.21875 23.0625 C 40.210938 22.945313 45.0625 18.019531 45.0625 12 C 45.0625 5.910156 40.085938 0.9375 34 0.9375 Z M 34 3.0625 C 38.949219 3.0625 42.9375 7.046875 42.9375 12 C 42.9375 13.980469 42.300781 15.804688 41.21875 17.28125 L 28.71875 4.78125 C 30.195313 3.699219 32.019531 3.0625 34 3.0625 Z M 27.1875 6.21875 L 39.8125 18.8125 C 38.253906 20.144531 36.222656 20.9375 34 20.9375 C 29.046875 20.9375 25.0625 16.957031 25.0625 12 C 25.0625 9.785156 25.863281 7.777344 27.1875 6.21875 Z M 23.34375 14.90625 C 24.378906 18.683594 27.371094 21.675781 31.15625 22.6875 C 27.082031 25.375 18.59375 31.144531 13.78125 35.9375 C 13.765625 35.917969 13.769531 35.925781 13.71875 35.875 L 10.09375 32.21875 C 14.984375 27.316406 20.691406 18.964844 23.34375 14.90625 Z M 23.1875 21.53125 C 22.886719 21.53125 22.570313 21.648438 22.34375 21.875 L 19.65625 24.59375 C 19.199219 25.050781 19.199219 25.792969 19.65625 26.25 L 19.75 26.34375 C 20.203125 26.800781 20.949219 26.800781 21.40625 26.34375 L 24.125 23.625 C 24.582031 23.171875 24.578125 22.425781 24.125 21.96875 L 24 21.875 C 23.773438 21.648438 23.488281 21.53125 23.1875 21.53125 Z" fill="currentColor"/></svg>
