<?xml version="1.0" encoding="utf-8"?>
<svg xmlns="http://www.w3.org/2000/svg" style="color:rgba(112, 112, 112, 0.826)" viewBox="0 0 50 50" fill="#fffffe"><path d="M 22 9 C 20.035156 9 18.128906 9.210938 16.28125 9.59375 C 16.242188 9.601563 16.195313 9.585938 16.15625 9.59375 C 16.125 9.59375 16.09375 9.59375 16.0625 9.59375 C 15.964844 9.609375 15.871094 9.640625 15.78125 9.6875 C 15.75 9.695313 15.71875 9.710938 15.6875 9.71875 C 12.28125 10.507813 9.089844 11.90625 6.28125 13.8125 C 6.113281 13.867188 5.960938 13.964844 5.84375 14.09375 C 3.734375 15.582031 1.855469 17.378906 0.21875 19.375 C -0.125 19.804688 -0.0585938 20.4375 0.375 20.78125 L 12.8125 30.84375 C 12.84375 30.867188 12.875 30.886719 12.90625 30.90625 L 21.375 37.78125 C 21.550781 37.921875 21.773438 38 22 38 L 49 38 C 49.550781 38 50 37.550781 50 37 C 50 35.125 49.789063 33.304688 49.4375 31.53125 C 49.5625 31.171875 49.480469 30.777344 49.21875 30.5 C 48.4375 27.21875 47.105469 24.160156 45.28125 21.4375 C 45.238281 21.117188 45.039063 20.835938 44.75 20.6875 C 42.75 17.90625 40.242188 15.511719 37.375 13.625 C 37.242188 13.472656 37.070313 13.363281 36.875 13.3125 C 34.007813 11.507813 30.808594 10.203125 27.375 9.53125 C 27.34375 9.519531 27.3125 9.507813 27.28125 9.5 C 27.128906 9.414063 26.957031 9.371094 26.78125 9.375 C 26.75 9.375 26.71875 9.375 26.6875 9.375 C 26.675781 9.375 26.667969 9.375 26.65625 9.375 C 25.136719 9.121094 23.589844 9 22 9 Z M 22 11 C 23.230469 11 24.441406 11.085938 25.625 11.25 L 23.09375 25.0625 C 22.730469 25.03125 22.371094 25 22 25 C 21.445313 25 20.90625 25.050781 20.375 25.125 L 17.40625 11.40625 C 18.894531 11.136719 20.421875 11 22 11 Z M 27.59375 11.59375 C 30.3125 12.191406 32.871094 13.210938 35.1875 14.59375 L 27.5625 26.375 C 26.777344 25.964844 25.9375 25.636719 25.0625 25.40625 Z M 15.4375 11.84375 L 18.4375 25.5625 C 17.566406 25.835938 16.765625 26.199219 16 26.65625 L 8.0625 15.125 C 10.308594 13.671875 12.785156 12.546875 15.4375 11.84375 Z M 36.875 15.71875 C 39.101563 17.296875 41.082031 19.21875 42.71875 21.40625 L 31.25 29.34375 C 30.664063 28.640625 30.011719 27.992188 29.28125 27.4375 Z M 6.40625 16.28125 L 14.375 27.8125 C 14.023438 28.109375 13.691406 28.414063 13.375 28.75 L 2.5 19.9375 C 3.6875 18.59375 4.984375 17.363281 6.40625 16.28125 Z M 43.875 23.0625 C 45.304688 25.320313 46.402344 27.8125 47.09375 30.46875 L 33.4375 33.40625 C 33.179688 32.558594 32.839844 31.753906 32.40625 31 Z M 22 27 C 22.46875 27 22.925781 27.035156 23.375 27.09375 C 23.589844 27.222656 23.847656 27.269531 24.09375 27.21875 C 25.222656 27.453125 26.269531 27.859375 27.21875 28.4375 C 27.25 28.460938 27.28125 28.480469 27.3125 28.5 C 27.335938 28.515625 27.351563 28.546875 27.375 28.5625 C 27.40625 28.585938 27.4375 28.605469 27.46875 28.625 C 27.476563 28.628906 27.492188 28.621094 27.5 28.625 C 27.519531 28.636719 27.542969 28.648438 27.5625 28.65625 C 29.519531 29.960938 30.984375 31.972656 31.625 34.3125 C 31.507813 34.660156 31.59375 35.042969 31.84375 35.3125 C 31.882813 35.539063 31.914063 35.769531 31.9375 36 L 22.34375 36 L 14.9375 30 C 15.378906 29.542969 15.859375 29.113281 16.375 28.75 C 16.386719 28.75 16.394531 28.75 16.40625 28.75 C 17.332031 28.101563 18.367188 27.636719 19.5 27.34375 C 19.511719 27.34375 19.519531 27.34375 19.53125 27.34375 C 19.761719 27.371094 19.992188 27.3125 20.1875 27.1875 C 20.769531 27.082031 21.375 27 22 27 Z M 47.53125 32.4375 C 47.738281 33.597656 47.859375 34.792969 47.90625 36 L 33.9375 36 C 33.921875 35.789063 33.871094 35.582031 33.84375 35.375 Z" fill="currentColor"/></svg>
