<?xml version="1.0" encoding="utf-8"?>
<svg xmlns="http://www.w3.org/2000/svg" style="color:rgba(112, 112, 112, 0.826)" viewBox="0 5 50 50" fill="#fffffe"><path d="M 0.875 2 C 0.371094 2.0625 -0.00390625 2.492188 0 3 L 0 41 C -0.00390625 41.386719 0.214844 41.738281 0.5625 41.90625 L 12.5625 47.90625 C 12.839844 48.039063 13.160156 48.039063 13.4375 47.90625 L 25.03125 42.09375 L 37.59375 47.90625 C 37.875 48.03125 38.199219 48.019531 38.46875 47.875 L 49.46875 41.875 C 49.792969 41.703125 49.996094 41.367188 50 41 L 50 3 C 49.996094 2.652344 49.8125 2.328125 49.511719 2.148438 C 49.210938 1.96875 48.839844 1.960938 48.53125 2.125 L 37.96875 7.875 L 25.40625 2.09375 C 25.140625 1.96875 24.828125 1.96875 24.5625 2.09375 L 13 7.875 L 1.4375 2.09375 C 1.261719 2.007813 1.066406 1.976563 0.875 2 Z M 25.03125 4.09375 L 37.59375 9.90625 C 37.875 10.03125 38.199219 10.019531 38.46875 9.875 L 48 4.6875 L 48 40.40625 L 37.96875 45.875 L 25.40625 40.09375 C 25.140625 39.96875 24.828125 39.96875 24.5625 40.09375 L 13 45.875 L 2 40.375 L 2 4.625 L 12.5625 9.90625 C 12.839844 10.039063 13.160156 10.039063 13.4375 9.90625 Z M 25.1875 11.5 C 21.488281 11.5 19 13.789063 18.5 17.1875 C 18.5 17.386719 18.613281 17.59375 18.8125 17.59375 L 21.09375 18 C 21.292969 18 21.5 17.886719 21.5 17.6875 C 21.898438 15.488281 23.1875 14.3125 25.1875 14.3125 C 27.289063 14.3125 28.6875 15.59375 28.6875 17.59375 C 28.6875 18.894531 28.300781 19.707031 27 21.40625 L 24.59375 24.6875 C 23.792969 25.6875 23.5 26.507813 23.5 27.90625 L 23.5 29.40625 C 23.5 29.605469 23.710938 29.8125 23.8125 29.8125 L 26.1875 29.8125 C 26.488281 29.8125 26.59375 29.605469 26.59375 29.40625 L 26.59375 28.3125 C 26.59375 27.113281 26.800781 26.59375 27.5 25.59375 L 29.90625 22.3125 C 31.105469 20.613281 31.6875 19.292969 31.6875 17.59375 C 31.6875 13.992188 29.085938 11.5 25.1875 11.5 Z M 23.8125 32.5 C 23.511719 32.5 23.40625 32.707031 23.40625 32.90625 L 23.40625 36 C 23.40625 36.300781 23.613281 36.40625 23.8125 36.40625 L 26.5 36.40625 C 26.800781 36.40625 26.90625 36.199219 26.90625 36 L 26.90625 32.90625 C 26.90625 32.605469 26.699219 32.5 26.5 32.5 Z" fill="currentColor"/></svg>
