<?xml version="1.0" encoding="utf-8"?>
<svg xmlns="http://www.w3.org/2000/svg" viewBox="0 0 50 50" fill="#ffffff"><path d="M 17.832031 0 C 17.542969 0 17.265625 0.00390625 17 0.0117188 L 17 12 C 17 12.550781 16.550781 13 16 13 C 15.449219 13 15 12.550781 15 12 L 15 0.148438 C 12.550781 0.4375 11.601563 1.046875 11.398438 1.199219 L 11.0625 1.453125 L 11.007813 1.875 C 10.96875 2.207031 10 10 10 15 C 10 18.925781 12.253906 20.609375 13.746094 21.71875 C 14.417969 22.222656 15 22.65625 15 23 C 15 23.820313 14.84375 25.707031 14.660156 27.894531 C 14.363281 31.4375 13.996094 35.84375 14 39 C 14 47.222656 15.007813 49.996094 17.996094 50 L 18.015625 50 C 19 50 20.226563 49.761719 21.003906 47.898438 C 21.6875 46.269531 22.003906 43.441406 22 39 C 22 35.847656 21.636719 31.449219 21.34375 27.914063 C 21.160156 25.71875 21 23.820313 21 23 C 21 22.660156 21.574219 22.242188 22.234375 21.753906 C 23.734375 20.652344 26 18.988281 26 15 C 26 11.703125 25.035156 2.296875 24.996094 1.898438 L 24.941406 1.402344 L 24.515625 1.144531 C 24.375 1.058594 23.355469 0.488281 21 0.1875 L 21 12 C 21 12.550781 20.550781 13 20 13 C 19.449219 13 19 12.550781 19 12 L 19 0.0273438 C 18.628906 0.0117188 18.246094 0 17.832031 0 Z M 30.910156 0.00390625 C 30.75 0.0195313 30.589844 0.0703125 30.449219 0.164063 C 30.167969 0.347656 30 0.664063 30 1 L 30 12 C 30 12.207031 30.011719 13.296875 30.027344 14.734375 C 30.054688 17.550781 30.097656 21.707031 30.097656 23.152344 C 30.101563 24.046875 29.894531 26.992188 29.671875 30.109375 C 29.355469 34.589844 29 39.671875 29 42 C 29 47.527344 29.28125 49.949219 32 49.953125 C 34.28125 49.953125 37 47.878906 37 38 C 36.996094 34.753906 36.210938 32.375 35.640625 30.640625 C 35.28125 29.558594 35 28.699219 35 28 C 34.996094 26.597656 35.980469 24.824219 37.015625 22.953125 C 38.449219 20.367188 40.070313 17.4375 40.074219 14.074219 C 40.070313 11.664063 39.441406 3.527344 31.390625 0.0820313 C 31.238281 0.015625 31.074219 -0.0117188 30.910156 0.00390625 Z" fill="#ffffff"/></svg>
