<?xml version="1.0" encoding="utf-8"?>
<svg xmlns="http://www.w3.org/2000/svg" style="color:rgba(112, 112, 112, 0.826)" viewBox="0 0 50 50" fill="#fffffe"><path d="M 21 8 C 14.015625 8 10.339844 12.527344 10.339844 12.527344 C 10.160156 12.75 10.085938 13.035156 10.132813 13.316406 C 10.179688 13.597656 10.347656 13.84375 10.589844 13.996094 C 10.589844 13.996094 12.039063 14.941406 12.722656 16.492188 C 13.382813 17.988281 13.507813 20.011719 10.621094 22.949219 C 10.277344 22.863281 9.929688 22.65625 9.566406 22.324219 C 9.066406 21.867188 8.585938 21.195313 8.1875 20.503906 C 7.398438 19.117188 6.953125 17.703125 6.953125 17.703125 C 6.824219 17.277344 6.421875 16.988281 5.96875 17 C 5.695313 17.007813 5.433594 17.132813 5.25 17.339844 C 5.25 17.339844 2 20.976563 2 26.046875 C 2 31.121094 5.257813 34.671875 5.257813 34.671875 C 5.5 34.9375 5.867188 35.054688 6.21875 34.976563 C 6.566406 34.898438 6.847656 34.636719 6.953125 34.296875 C 6.953125 34.296875 7.398438 32.882813 8.1875 31.496094 C 8.585938 30.804688 9.066406 30.132813 9.566406 29.675781 C 9.914063 29.359375 10.246094 29.164063 10.574219 29.066406 C 12.253906 31.160156 12.191406 33.046875 11.730469 34.589844 C 11.238281 36.230469 10.253906 37.328125 10.253906 37.328125 C 9.910156 37.714844 9.914063 38.296875 10.265625 38.675781 C 10.265625 38.675781 11.105469 39.574219 12.703125 40.390625 C 14.296875 41.207031 16.714844 42 20 42 C 29.78125 42 38.503906 36.863281 38.503906 36.863281 C 38.679688 36.769531 38.824219 36.621094 38.917969 36.445313 C 44.464844 32.949219 47.433594 28.15625 47.519531 28.015625 C 48.179688 27.214844 48.144531 26.007813 47.398438 25.265625 L 47.261719 25.128906 L 47.085938 25.058594 C 47.085938 25.058594 46.40625 24.746094 45.503906 24.109375 L 45.507813 24.109375 C 45.472656 24.085938 45.109375 23.769531 44.699219 23.375 C 44.289063 22.976563 43.785156 22.484375 43.214844 22 C 43.203125 21.988281 43.1875 21.980469 43.175781 21.96875 C 42.59375 21.265625 42.039063 20.441406 41.605469 19.464844 C 40.683594 17.144531 39.199219 15.03125 37.171875 13.488281 C 37.136719 13.445313 37.097656 13.40625 37.054688 13.375 C 37.054688 13.375 30.792969 8 21 8 Z M 21 10 C 23.699219 10 26.089844 10.4375 28.125 11.046875 C 23.488281 11.429688 19.855469 13.796875 17.078125 16.332031 C 16.339844 17.007813 15.664063 17.695313 15.03125 18.363281 C 15.074219 17.367188 14.890625 16.457031 14.550781 15.6875 C 14.039063 14.523438 13.300781 13.6875 12.679688 13.121094 C 13.535156 12.226563 15.921875 10 21 10 Z M 29.058594 12.996094 C 29.355469 12.988281 29.65625 12.988281 29.964844 13 C 32.1875 13.082031 34.035156 13.707031 35.542969 14.71875 C 35.652344 14.808594 35.75 14.890625 35.75 14.890625 C 35.820313 14.949219 35.898438 15 35.980469 15.039063 C 37.648438 16.300781 38.863281 18.0625 39.675781 20.0625 C 39.457031 20.023438 39.230469 20 39 20 C 37.863281 20 36.882813 20.519531 36.132813 21.191406 C 35.382813 21.867188 34.816406 22.703125 34.363281 23.515625 C 33.464844 25.140625 33.035156 26.734375 33.035156 26.734375 L 32.917969 27.171875 L 33.164063 27.546875 C 33.164063 27.546875 33.988281 28.804688 34.90625 30.480469 C 35.734375 31.980469 36.597656 33.808594 37.015625 35.246094 C 34.265625 36.824219 30.917969 38 27 38 C 23.164063 38 20.207031 35.972656 17.734375 33.566406 C 15.332031 31.234375 13.589844 28.628906 11.722656 27.296875 C 11.636719 27.210938 11.539063 27.140625 11.425781 27.089844 C 11.277344 27.015625 11.109375 26.980469 10.941406 26.988281 C 10.859375 26.996094 10.773438 27.011719 10.691406 27.035156 C 9.722656 27.125 8.882813 27.59375 8.21875 28.199219 C 7.484375 28.867188 6.914063 29.695313 6.453125 30.503906 C 6.039063 31.230469 6.054688 31.371094 5.820313 31.941406 C 5.007813 30.71875 4 28.84375 4 26.046875 C 4 23.25 5.011719 21.332031 5.828125 20.078125 C 6.0625 20.644531 6.042969 20.78125 6.453125 21.496094 C 6.914063 22.304688 7.484375 23.132813 8.21875 23.800781 C 8.890625 24.414063 9.746094 24.890625 10.734375 24.96875 C 10.882813 25.011719 11.042969 25.015625 11.199219 24.984375 C 11.203125 24.980469 11.207031 24.980469 11.210938 24.980469 C 11.238281 24.972656 11.269531 24.96875 11.296875 24.957031 C 11.300781 24.957031 11.304688 24.957031 11.308594 24.953125 C 11.3125 24.953125 11.3125 24.953125 11.3125 24.953125 C 11.472656 24.902344 11.617188 24.8125 11.734375 24.691406 C 12.65625 24.027344 13.527344 23.03125 14.570313 21.851563 C 15.683594 20.597656 16.953125 19.15625 18.425781 17.8125 C 21.191406 15.285156 24.605469 13.113281 29.058594 12.996094 Z M 39 22 C 39.726563 22 40.796875 22.605469 41.765625 23.40625 C 43.617188 25.574219 45.632813 26.539063 45.988281 26.703125 C 45.996094 26.714844 46.007813 26.726563 45.984375 26.75 L 45.902344 26.832031 L 45.839844 26.9375 C 45.839844 26.9375 43.363281 30.941406 38.773438 34.136719 C 38.25 32.5625 37.425781 30.910156 36.660156 29.515625 C 35.84375 28.03125 35.316406 27.230469 35.109375 26.910156 C 35.195313 26.621094 35.449219 25.683594 36.113281 24.484375 C 36.496094 23.796875 36.964844 23.132813 37.46875 22.683594 C 37.972656 22.230469 38.457031 22 39 22 Z M 40 24 C 39.449219 24 39 24.449219 39 25 C 39 25.550781 39.449219 26 40 26 C 40.550781 26 41 25.550781 41 25 C 41 24.449219 40.550781 24 40 24 Z M 13.972656 32.507813 C 14.699219 33.320313 15.472656 34.160156 16.339844 35 C 18.40625 37.011719 20.980469 38.925781 24.171875 39.671875 C 22.816406 39.871094 21.417969 40 20 40 C 17.035156 40 14.953125 39.292969 13.609375 38.609375 C 12.746094 38.167969 12.667969 38.015625 12.402344 37.78125 C 12.816406 37.164063 13.304688 36.296875 13.644531 35.160156 C 13.878906 34.378906 14.015625 33.472656 13.972656 32.507813 Z" fill="currentColor"/></svg>
