<?xml version="1.0" encoding="utf-8"?>
<svg xmlns="http://www.w3.org/2000/svg" style="color:rgba(112, 112, 112, 0.826)" viewBox="0 0 50 50" fill="#fffffe"><path d="M 23.28125 1 C 21.476563 1 19.914063 1.882813 18.8125 3.15625 C 18.4375 3.066406 18.078125 2.9375 17.65625 2.9375 C 15.074219 2.9375 12.976563 4.796875 12.40625 7.21875 C 11.757813 6.941406 11.0625 6.75 10.3125 6.75 C 7.300781 6.75 4.84375 9.226563 4.84375 12.25 C 4.84375 12.421875 4.886719 12.554688 4.90625 12.71875 C 2.714844 13.433594 1.0625 15.410156 1.0625 17.84375 C 1.0625 20.546875 3.085938 22.707031 5.65625 23.15625 C 5.246094 23.894531 4.992188 24.710938 4.90625 25.59375 C 2.664063 26.28125 1 28.28125 1 30.75 C 1 33.773438 3.457031 36.25 6.46875 36.25 C 6.652344 36.25 6.796875 36.207031 6.96875 36.1875 C 7.6875 38.371094 9.648438 40 12.0625 40 C 13.746094 40 15.15625 39.144531 16.15625 37.9375 C 16.609375 38.039063 17.050781 38.15625 17.5625 38.15625 C 18.636719 38.15625 19.648438 37.898438 20.5625 37.46875 C 20.714844 38.21875 21 39.804688 21 42 C 21 43.371094 20.601563 43.925781 20.03125 44.34375 C 19.460938 44.761719 18.589844 44.996094 17.625 45.125 C 16.660156 45.253906 15.683594 45.246094 14.78125 45.5625 C 14.332031 45.722656 13.796875 46.019531 13.53125 46.59375 C 13.265625 47.167969 13.363281 47.804688 13.59375 48.375 C 13.703125 48.742188 14.007813 49.011719 14.382813 49.078125 C 14.757813 49.140625 15.136719 48.988281 15.363281 48.679688 C 15.585938 48.371094 15.613281 47.960938 15.4375 47.625 C 15.402344 47.535156 15.414063 47.507813 15.40625 47.46875 C 15.421875 47.460938 15.414063 47.476563 15.4375 47.46875 C 15.808594 47.339844 16.796875 47.238281 17.875 47.09375 C 18.953125 46.949219 20.171875 46.738281 21.21875 45.96875 C 22.265625 45.199219 23 43.832031 23 42 C 23 40.160156 22.773438 38.578125 22.59375 37.53125 C 22.675781 37.539063 22.761719 37.5625 22.84375 37.5625 C 23.925781 37.5625 24.894531 37.179688 25.75 36.65625 C 26.449219 37.253906 27.289063 37.722656 28.25 37.8125 C 28.21875 38.289063 28.207031 38.574219 28.15625 39.4375 C 28.078125 40.816406 27.984375 42.300781 28 43.03125 C 28.035156 44.699219 28.535156 45.921875 29.375 46.6875 C 30.214844 47.453125 31.269531 47.703125 32.15625 47.8125 C 33.042969 47.921875 33.835938 47.917969 34.25 48 C 34.410156 48.03125 34.421875 48.058594 34.4375 48.0625 C 34.453125 48.613281 34.917969 49.046875 35.46875 49.03125 C 36.019531 49.015625 36.453125 48.550781 36.4375 48 C 36.4375 47.476563 36.222656 46.898438 35.84375 46.5625 C 35.464844 46.226563 35.042969 46.109375 34.65625 46.03125 C 33.882813 45.875 33.113281 45.902344 32.40625 45.8125 C 31.699219 45.722656 31.097656 45.566406 30.71875 45.21875 C 30.339844 44.871094 30.027344 44.277344 30 42.96875 C 29.988281 42.480469 30.046875 40.929688 30.125 39.5625 C 30.191406 38.425781 30.253906 37.722656 30.28125 37.40625 C 30.925781 37.078125 31.484375 36.605469 31.9375 36.03125 C 32.539063 36.207031 33.152344 36.40625 33.8125 36.40625 C 35.042969 36.40625 36.164063 36.039063 37.15625 35.46875 C 37.164063 35.46875 37.175781 35.46875 37.1875 35.46875 C 38.152344 37.023438 39.765625 38.15625 41.71875 38.15625 C 44.730469 38.15625 47.1875 35.679688 47.1875 32.65625 C 47.1875 31.03125 46.371094 29.664063 45.25 28.65625 C 47.40625 27.917969 49 25.90625 49 23.5 C 49 20.941406 47.210938 18.886719 44.84375 18.28125 C 44.347656 16.40625 42.921875 14.957031 41.0625 14.4375 C 41.363281 13.765625 41.59375 13.066406 41.59375 12.28125 C 41.59375 9.257813 39.136719 6.78125 36.125 6.78125 C 35.121094 6.78125 34.210938 7.117188 33.40625 7.59375 C 32.464844 5.945313 30.773438 4.78125 28.75 4.78125 C 27.847656 2.589844 25.78125 1 23.28125 1 Z M 23.28125 3 C 25.171875 3 26.726563 4.320313 27.15625 6.09375 C 27.277344 6.585938 27.75 6.90625 28.25 6.84375 C 28.480469 6.8125 28.652344 6.78125 28.75 6.78125 C 30.332031 6.78125 31.636719 7.851563 32.0625 9.3125 C 32.160156 9.648438 32.429688 9.910156 32.765625 10 C 33.105469 10.089844 33.46875 9.992188 33.71875 9.75 C 34.347656 9.140625 35.191406 8.78125 36.125 8.78125 C 38.046875 8.78125 39.59375 10.332031 39.59375 12.28125 C 39.59375 13.144531 39.273438 13.910156 38.75 14.53125 C 38.488281 14.832031 38.429688 15.253906 38.601563 15.613281 C 38.769531 15.972656 39.132813 16.199219 39.53125 16.1875 C 39.597656 16.183594 39.625 16.160156 39.65625 16.15625 C 41.421875 16.15625 42.835938 17.46875 43.0625 19.1875 C 43.117188 19.644531 43.480469 20.007813 43.9375 20.0625 C 45.664063 20.269531 47 21.695313 47 23.5 C 47 25.242188 45.761719 26.6875 44.125 26.96875 C 43.65625 27.042969 43.304688 27.433594 43.28125 27.90625 C 43.265625 28.21875 43.230469 28.484375 43.1875 28.71875 C 43.109375 29.121094 43.28125 29.527344 43.625 29.75 C 44.558594 30.378906 45.1875 31.433594 45.1875 32.65625 C 45.1875 34.605469 43.640625 36.15625 41.71875 36.15625 C 40.308594 36.15625 39.105469 35.3125 38.5625 34.09375 C 38.398438 33.726563 38.027344 33.492188 37.625 33.5 C 37.394531 33.503906 37.335938 33.5 37.46875 33.5 C 37.449219 33.5 37.332031 33.488281 37.0625 33.46875 C 36.84375 33.449219 36.621094 33.503906 36.4375 33.625 C 35.671875 34.128906 34.789063 34.40625 33.8125 34.40625 C 33.167969 34.40625 32.535156 34.292969 31.96875 34.0625 C 31.5 33.871094 30.964844 34.058594 30.71875 34.5 C 30.292969 35.289063 29.507813 35.84375 28.5625 35.84375 C 27.769531 35.84375 27.054688 35.441406 26.59375 34.84375 C 26.25 34.410156 25.617188 34.34375 25.1875 34.6875 C 24.535156 35.222656 23.726563 35.5625 22.84375 35.5625 C 22.3125 35.5625 21.835938 35.421875 21.375 35.21875 C 21.058594 35.082031 20.691406 35.117188 20.40625 35.3125 C 19.582031 35.84375 18.613281 36.15625 17.5625 36.15625 C 17.085938 36.15625 16.621094 36.050781 16.125 35.90625 C 15.695313 35.785156 15.234375 35.960938 15 36.34375 C 14.382813 37.339844 13.308594 38 12.0625 38 C 10.296875 38 8.847656 36.691406 8.625 34.96875 C 8.589844 34.683594 8.429688 34.425781 8.191406 34.261719 C 7.953125 34.101563 7.65625 34.050781 7.375 34.125 C 7.054688 34.214844 6.757813 34.25 6.46875 34.25 C 4.542969 34.25 3 32.699219 3 30.75 C 3 28.980469 4.296875 27.566406 5.96875 27.3125 C 6.472656 27.234375 6.835938 26.789063 6.8125 26.28125 C 6.808594 26.226563 6.785156 26.214844 6.78125 26.1875 C 6.78125 26.132813 6.773438 26.109375 6.78125 26.125 C 6.800781 24.863281 7.351563 23.761719 8.21875 22.96875 C 8.550781 22.664063 8.640625 22.175781 8.4375 21.777344 C 8.230469 21.375 7.785156 21.160156 7.34375 21.25 C 7.074219 21.3125 6.820313 21.34375 6.5625 21.34375 C 4.640625 21.34375 3.0625 19.792969 3.0625 17.84375 C 3.0625 16.042969 4.402344 14.613281 6.125 14.40625 C 6.410156 14.371094 6.667969 14.210938 6.832031 13.972656 C 6.992188 13.734375 7.042969 13.4375 6.96875 13.15625 C 6.882813 12.832031 6.84375 12.535156 6.84375 12.25 C 6.84375 10.300781 8.390625 8.75 10.3125 8.75 C 11.175781 8.75 11.945313 9.054688 12.5625 9.59375 C 12.871094 9.863281 13.3125 9.917969 13.675781 9.734375 C 14.042969 9.546875 14.257813 9.15625 14.21875 8.75 C 14.199219 8.546875 14.1875 8.441406 14.1875 8.4375 C 14.1875 6.488281 15.734375 4.9375 17.65625 4.9375 C 18.039063 4.9375 18.394531 5.019531 18.78125 5.15625 C 19.207031 5.308594 19.679688 5.152344 19.9375 4.78125 C 20.660156 3.703125 21.894531 3 23.28125 3 Z" fill="currentColor"/></svg>
