<?xml version="1.0" encoding="utf-8"?>
<svg xmlns="http://www.w3.org/2000/svg" viewBox="0 0 50 50" fill="#444444"><path d="M 19 48 C 18.875 48 18.746094 47.976563 18.621094 47.925781 C 18.175781 47.742188 17.921875 47.265625 18.023438 46.792969 L 21.769531 29 L 13 29 C 12.628906 29 12.289063 28.796875 12.117188 28.46875 C 11.941406 28.140625 11.964844 27.742188 12.171875 27.4375 L 29.171875 2.4375 C 29.445313 2.042969 29.953125 1.894531 30.390625 2.082031 C 30.832031 2.269531 31.078125 2.738281 30.980469 3.207031 L 27.230469 21 L 35 21 C 35.363281 21 35.703125 21.199219 35.878906 21.519531 C 36.054688 21.839844 36.039063 22.230469 35.84375 22.539063 L 19.84375 47.539063 C 19.652344 47.835938 19.332031 48 19 48 Z" fill="#444444"/></svg>
