<?xml version="1.0" encoding="utf-8"?>
<svg xmlns="http://www.w3.org/2000/svg" viewBox="0 0 50 50" fill="#444444"><path d="M 6 3 C 3.789063 3 2 4.789063 2 7 C 2 9.210938 3.789063 11 6 11 C 8.210938 11 10 9.210938 10 7 C 10 4.789063 8.210938 3 6 3 Z M 12 6 C 11.449219 6 11 6.449219 11 7 C 11 7.550781 11.449219 8 12 8 C 12.550781 8 13 7.550781 13 7 C 13 6.449219 12.550781 6 12 6 Z M 16 6 C 15.449219 6 15 6.449219 15 7 C 15 7.550781 15.449219 8 16 8 C 16.550781 8 17 7.550781 17 7 C 17 6.449219 16.550781 6 16 6 Z M 20 6 C 19.449219 6 19 6.449219 19 7 C 19 7.550781 19.449219 8 20 8 C 20.550781 8 21 7.550781 21 7 C 21 6.449219 20.550781 6 20 6 Z M 24 6 C 23.449219 6 23 6.449219 23 7 C 23 7.550781 23.449219 8 24 8 C 24.550781 8 25 7.550781 25 7 C 25 6.449219 24.550781 6 24 6 Z M 28 6 C 27.449219 6 27 6.449219 27 7 C 27 7.550781 27.449219 8 28 8 C 28.550781 8 29 7.550781 29 7 C 29 6.449219 28.550781 6 28 6 Z M 32 6 C 31.449219 6 31 6.449219 31 7 C 31 7.550781 31.449219 8 32 8 C 32.550781 8 33 7.550781 33 7 C 33 6.449219 32.550781 6 32 6 Z M 36 6 C 35.449219 6 35 6.449219 35 7 C 35 7.550781 35.449219 8 36 8 C 36.550781 8 37 7.550781 37 7 C 37 6.449219 36.550781 6 36 6 Z M 40 6 C 39.449219 6 39 6.449219 39 7 C 39 7.550781 39.449219 8 40 8 C 40.550781 8 41 7.550781 41 7 C 41 6.449219 40.550781 6 40 6 Z M 44 6 C 43.449219 6 43 6.449219 43 7 C 43 7.550781 43.449219 8 44 8 C 44.550781 8 45 7.550781 45 7 C 45 6.449219 44.550781 6 44 6 Z M 44 10 C 43.449219 10 43 10.449219 43 11 C 43 11.550781 43.449219 12 44 12 C 44.550781 12 45 11.550781 45 11 C 45 10.449219 44.550781 10 44 10 Z M 24 14 C 20.691406 14 18 16.691406 18 20 C 18 22.957031 22.617188 30.652344 23.144531 31.519531 C 23.328125 31.816406 23.648438 32 24 32 C 24.351563 32 24.671875 31.816406 24.855469 31.519531 C 25.382813 30.652344 30 22.957031 30 20 C 30 16.691406 27.308594 14 24 14 Z M 44 14 C 43.449219 14 43 14.449219 43 15 C 43 15.550781 43.449219 16 44 16 C 44.550781 16 45 15.550781 45 15 C 45 14.449219 44.550781 14 44 14 Z M 44 17 C 41.789063 17 40 18.789063 40 21 C 40 23.210938 41.789063 25 44 25 C 46.210938 25 48 23.210938 48 21 C 48 18.789063 46.210938 17 44 17 Z M 24 18 C 25.105469 18 26 18.894531 26 20 C 26 21.105469 25.105469 22 24 22 C 22.894531 22 22 21.105469 22 20 C 22 18.894531 22.894531 18 24 18 Z M 44 26 C 43.449219 26 43 26.449219 43 27 C 43 27.550781 43.449219 28 44 28 C 44.550781 28 45 27.550781 45 27 C 45 26.449219 44.550781 26 44 26 Z M 4 30 C 3.449219 30 3 30.449219 3 31 C 3 31.550781 3.449219 32 4 32 C 4.550781 32 5 31.550781 5 31 C 5 30.449219 4.550781 30 4 30 Z M 8 30 C 7.449219 30 7 30.449219 7 31 C 7 31.550781 7.449219 32 8 32 C 8.550781 32 9 31.550781 9 31 C 9 30.449219 8.550781 30 8 30 Z M 12 30 C 11.449219 30 11 30.449219 11 31 C 11 31.550781 11.449219 32 12 32 C 12.550781 32 13 31.550781 13 31 C 13 30.449219 12.550781 30 12 30 Z M 16 30 C 15.449219 30 15 30.449219 15 31 C 15 31.550781 15.449219 32 16 32 C 16.550781 32 17 31.550781 17 31 C 17 30.449219 16.550781 30 16 30 Z M 20 30 C 19.449219 30 19 30.449219 19 31 C 19 31.550781 19.449219 32 20 32 C 20.550781 32 21 31.550781 21 31 C 21 30.449219 20.550781 30 20 30 Z M 28 30 C 27.449219 30 27 30.449219 27 31 C 27 31.550781 27.449219 32 28 32 C 28.550781 32 29 31.550781 29 31 C 29 30.449219 28.550781 30 28 30 Z M 32 30 C 31.449219 30 31 30.449219 31 31 C 31 31.550781 31.449219 32 32 32 C 32.550781 32 33 31.550781 33 31 C 33 30.449219 32.550781 30 32 30 Z M 36 30 C 35.449219 30 35 30.449219 35 31 C 35 31.550781 35.449219 32 36 32 C 36.550781 32 37 31.550781 37 31 C 37 30.449219 36.550781 30 36 30 Z M 40 30 C 39.449219 30 39 30.449219 39 31 C 39 31.550781 39.449219 32 40 32 C 40.550781 32 41 31.550781 41 31 C 41 30.449219 40.550781 30 40 30 Z M 44 30 C 43.449219 30 43 30.449219 43 31 C 43 31.550781 43.449219 32 44 32 C 44.550781 32 45 31.550781 45 31 C 45 30.449219 44.550781 30 44 30 Z M 4 34 C 3.449219 34 3 34.449219 3 35 C 3 35.550781 3.449219 36 4 36 C 4.550781 36 5 35.550781 5 35 C 5 34.449219 4.550781 34 4 34 Z M 4 38 C 3.449219 38 3 38.449219 3 39 C 3 39.550781 3.449219 40 4 40 C 4.550781 40 5 39.550781 5 39 C 5 38.449219 4.550781 38 4 38 Z M 43 39 C 40.789063 39 39 40.789063 39 43 C 39 45.210938 40.789063 47 43 47 C 45.210938 47 47 45.210938 47 43 C 47 40.789063 45.210938 39 43 39 Z M 4 42 C 3.449219 42 3 42.449219 3 43 C 3 43.550781 3.449219 44 4 44 C 4.550781 44 5 43.550781 5 43 C 5 42.449219 4.550781 42 4 42 Z M 8 42 C 7.449219 42 7 42.449219 7 43 C 7 43.550781 7.449219 44 8 44 C 8.550781 44 9 43.550781 9 43 C 9 42.449219 8.550781 42 8 42 Z M 12 42 C 11.449219 42 11 42.449219 11 43 C 11 43.550781 11.449219 44 12 44 C 12.550781 44 13 43.550781 13 43 C 13 42.449219 12.550781 42 12 42 Z M 16 42 C 15.449219 42 15 42.449219 15 43 C 15 43.550781 15.449219 44 16 44 C 16.550781 44 17 43.550781 17 43 C 17 42.449219 16.550781 42 16 42 Z M 20 42 C 19.449219 42 19 42.449219 19 43 C 19 43.550781 19.449219 44 20 44 C 20.550781 44 21 43.550781 21 43 C 21 42.449219 20.550781 42 20 42 Z M 24 42 C 23.449219 42 23 42.449219 23 43 C 23 43.550781 23.449219 44 24 44 C 24.550781 44 25 43.550781 25 43 C 25 42.449219 24.550781 42 24 42 Z M 28 42 C 27.449219 42 27 42.449219 27 43 C 27 43.550781 27.449219 44 28 44 C 28.550781 44 29 43.550781 29 43 C 29 42.449219 28.550781 42 28 42 Z M 32 42 C 31.449219 42 31 42.449219 31 43 C 31 43.550781 31.449219 44 32 44 C 32.550781 44 33 43.550781 33 43 C 33 42.449219 32.550781 42 32 42 Z M 36 42 C 35.449219 42 35 42.449219 35 43 C 35 43.550781 35.449219 44 36 44 C 36.550781 44 37 43.550781 37 43 C 37 42.449219 36.550781 42 36 42 Z" fill="#444444"/></svg>
