<?xml version="1.0" encoding="utf-8"?>
<svg xmlns="http://www.w3.org/2000/svg" viewBox="0 0 50 50" fill="#ffffff"><path d="M 25 2 C 13.454545 2 4 11.454545 4 23 C 4 28.720417 6.2769868 33.849697 10 37.648438 L 10 41 L 40 41 L 40 39.037109 L 40 38 C 40 37.894453 39.97718 37.79535 39.970703 37.691406 C 43.714922 33.887401 46 28.739403 46 23 C 46 11.454545 36.545455 2 25 2 z M 25 4 A 1 1 0 0 0 26 5 A 1 1 0 0 0 26.994141 4.1074219 C 29.585516 4.380771 32.022021 5.1846284 34.201172 6.4003906 A 1 1 0 0 0 34 7 A 1 1 0 0 0 35 8 A 1 1 0 0 0 35.884766 7.4648438 C 36.559229 7.9395597 37.19422 8.4634923 37.800781 9.0195312 A 1 1 0 0 0 37 10 A 1 1 0 0 0 38 11 A 1 1 0 0 0 38.980469 10.195312 C 39.537249 10.8025 40.059885 11.439981 40.535156 12.115234 A 1 1 0 0 0 40 13 A 1 1 0 0 0 41 14 A 1 1 0 0 0 41.599609 13.798828 C 41.864186 14.273059 42.104126 14.761957 42.328125 15.259766 A 1 1 0 0 0 42 16 A 1 1 0 0 0 43 17 A 1 1 0 0 0 43.007812 17 C 43.438213 18.282715 43.746367 19.619768 43.892578 21.005859 A 1 1 0 0 0 43 22 A 1 1 0 0 0 44 23 C 44 27.813289 42.246197 32.130673 39.302734 35.478516 C 38.506172 34.124278 37.100488 33.170713 35.457031 33.021484 C 34.773031 31.789484 33.46 31 32 31 C 31.672 31 31.353781 31.033656 31.050781 31.097656 C 30.324781 30.087656 29.217 29.374234 28 29.115234 L 28 37 L 26 37 L 26 16.585938 L 21 11.585938 L 21 9 A 1.0001 1.0001 0 0 0 19.984375 7.9863281 A 1.0001 1.0001 0 0 0 19 9 L 19 11.585938 L 14 16.585938 L 14 37 L 12.005859 37 L 12 37 L 12 33.542969 C 11.328654 33.925714 10.788681 34.49617 10.4375 35.185547 C 7.6484912 31.880245 6 27.672401 6 23 C 6 12.545455 14.545455 4 25 4 z M 29 6 A 1 1 0 0 0 28 7 A 1 1 0 0 0 29 8 A 1 1 0 0 0 30 7 A 1 1 0 0 0 29 6 z M 32 9 A 1 1 0 0 0 31 10 A 1 1 0 0 0 32 11 A 1 1 0 0 0 33 10 A 1 1 0 0 0 32 9 z M 29 12 A 1 1 0 0 0 28 13 A 1 1 0 0 0 29 14 A 1 1 0 0 0 30 13 A 1 1 0 0 0 29 12 z M 35 12 A 1 1 0 0 0 34 13 A 1 1 0 0 0 35 14 A 1 1 0 0 0 36 13 A 1 1 0 0 0 35 12 z M 32 15 A 1 1 0 0 0 31 16 A 1 1 0 0 0 32 17 A 1 1 0 0 0 33 16 A 1 1 0 0 0 32 15 z M 38 15 A 1 1 0 0 0 37 16 A 1 1 0 0 0 38 17 A 1 1 0 0 0 39 16 A 1 1 0 0 0 38 15 z M 35 18 A 1 1 0 0 0 34 19 A 1 1 0 0 0 35 20 A 1 1 0 0 0 36 19 A 1 1 0 0 0 35 18 z M 41 18 A 1 1 0 0 0 40 19 A 1 1 0 0 0 41 20 A 1 1 0 0 0 42 19 A 1 1 0 0 0 41 18 z M 18 19 L 22 19 L 22 21 L 18 21 L 18 19 z M 32 21 A 1 1 0 0 0 31 22 A 1 1 0 0 0 32 23 A 1 1 0 0 0 33 22 A 1 1 0 0 0 32 21 z M 38 21 A 1 1 0 0 0 37 22 A 1 1 0 0 0 38 23 A 1 1 0 0 0 39 22 A 1 1 0 0 0 38 21 z M 18 23 L 22 23 L 22 25 L 18 25 L 18 23 z M 35 24 A 1 1 0 0 0 34 25 A 1 1 0 0 0 35 26 A 1 1 0 0 0 36 25 A 1 1 0 0 0 35 24 z M 41 24 A 1 1 0 0 0 40 25 A 1 1 0 0 0 41 26 A 1 1 0 0 0 42 25 A 1 1 0 0 0 41 24 z M 18 27 L 22 27 L 22 29 L 18 29 L 18 27 z M 38 27 A 1 1 0 0 0 37 28 A 1 1 0 0 0 38 29 A 1 1 0 0 0 39 28 A 1 1 0 0 0 38 27 z M 18 31 L 22 31 L 22 33 L 18 33 L 18 31 z M 7 43 C 6.448 43 6 43.447 6 44 L 6 46 C 6 46.553 6.448 47 7 47 L 43 47 C 43.553 47 44 46.553 44 46 L 44 44 C 44 43.447 43.553 43 43 43 L 7 43 z" fill="#ffffff"/></svg>
