<?xml version="1.0" encoding="utf-8"?>
<svg xmlns="http://www.w3.org/2000/svg" viewBox="0 0 50 50" fill="#f7002d"><path d="M 33.65625 4.03125 C 33.144531 4.03125 32.652344 4.222656 32.28125 4.59375 L 31.09375 5.78125 L 33.65625 8.34375 C 34.554688 9.242188 34.804688 10.589844 34.28125 11.71875 C 34.675781 11.535156 35.09375 11.46875 35.53125 11.46875 C 36.335938 11.46875 37.09375 11.777344 37.65625 12.34375 L 41.84375 16.53125 C 42.59375 17.277344 42.996094 18.253906 43 19.3125 C 43.003906 20.375 42.597656 21.371094 41.84375 22.125 L 38.1875 25.78125 L 36.5 27.5 L 20.75 43.21875 L 20.9375 43.40625 C 21.308594 43.777344 21.816406 44 22.34375 44 C 22.871094 44 23.347656 43.808594 23.71875 43.4375 L 47.4375 19.71875 C 47.808594 19.347656 48 18.871094 48 18.34375 C 48 17.816406 47.808594 17.308594 47.4375 16.9375 L 43.21875 12.75 C 42.894531 12.425781 42.390625 12.359375 42 12.59375 C 41.269531 13.03125 40.292969 12.914063 39.6875 12.3125 C 39.070313 11.695313 38.953125 10.753906 39.40625 10 C 39.640625 9.605469 39.574219 9.105469 39.25 8.78125 L 35.0625 4.59375 C 34.691406 4.222656 34.167969 4.03125 33.65625 4.03125 Z M 26.6875 5.03125 C 26.175781 5.03125 25.652344 5.191406 25.28125 5.5625 L 21.59375 9.25 C 21.65625 9.289063 21.726563 9.320313 21.78125 9.375 L 22.5 10.09375 C 22.890625 10.484375 22.890625 11.109375 22.5 11.5 C 22.304688 11.695313 22.039063 11.78125 21.78125 11.78125 C 21.523438 11.78125 21.289063 11.695313 21.09375 11.5 L 20.375 10.78125 C 20.320313 10.726563 20.289063 10.65625 20.25 10.59375 L 1.5625 29.28125 C 0.796875 30.050781 0.792969 31.296875 1.5625 32.0625 L 5.78125 36.25 C 6.105469 36.574219 6.605469 36.644531 7 36.40625 C 7.730469 35.964844 8.707031 36.082031 9.3125 36.6875 C 9.929688 37.304688 10.046875 38.246094 9.59375 39 C 9.359375 39.394531 9.425781 39.894531 9.75 40.21875 L 13.9375 44.40625 C 14.308594 44.777344 14.816406 45 15.34375 45 C 15.871094 45 16.347656 44.808594 16.71875 44.4375 L 35.40625 25.71875 C 35.355469 25.683594 35.296875 25.671875 35.25 25.625 L 34.5625 24.90625 C 34.171875 24.515625 34.171875 23.890625 34.5625 23.5 C 34.953125 23.109375 35.578125 23.109375 35.96875 23.5 L 36.6875 24.21875 C 36.734375 24.265625 36.746094 24.324219 36.78125 24.375 L 40.4375 20.71875 C 40.808594 20.34375 41 19.839844 41 19.3125 C 41 18.789063 40.808594 18.304688 40.4375 17.9375 L 36.25 13.75 C 35.925781 13.425781 35.394531 13.355469 35 13.59375 C 34.269531 14.03125 33.292969 13.917969 32.6875 13.3125 C 32.070313 12.695313 31.953125 11.753906 32.40625 11 C 32.640625 10.605469 32.574219 10.105469 32.25 9.78125 L 28.0625 5.5625 C 27.691406 5.191406 27.199219 5.03125 26.6875 5.03125 Z M 23.90625 11.90625 C 24.160156 11.90625 24.429688 11.992188 24.625 12.1875 L 25.3125 12.90625 C 25.703125 13.296875 25.703125 13.921875 25.3125 14.3125 C 25.117188 14.507813 24.882813 14.625 24.625 14.625 C 24.367188 14.625 24.101563 14.507813 23.90625 14.3125 L 23.1875 13.625 C 22.796875 13.234375 22.796875 12.578125 23.1875 12.1875 C 23.382813 11.992188 23.652344 11.90625 23.90625 11.90625 Z M 26.75 14.75 C 27.003906 14.75 27.242188 14.835938 27.4375 15.03125 L 28.15625 15.75 C 28.546875 16.140625 28.546875 16.765625 28.15625 17.15625 C 27.960938 17.351563 27.695313 17.4375 27.4375 17.4375 C 27.179688 17.4375 26.945313 17.351563 26.75 17.15625 L 26.03125 16.4375 C 25.640625 16.046875 25.640625 15.421875 26.03125 15.03125 C 26.226563 14.835938 26.496094 14.75 26.75 14.75 Z M 29.5625 17.5625 C 29.816406 17.5625 30.085938 17.648438 30.28125 17.84375 L 30.96875 18.5625 C 31.359375 18.953125 31.359375 19.578125 30.96875 19.96875 C 30.773438 20.164063 30.539063 20.28125 30.28125 20.28125 C 30.023438 20.28125 29.757813 20.164063 29.5625 19.96875 L 28.84375 19.28125 C 28.453125 18.890625 28.453125 18.234375 28.84375 17.84375 C 29.039063 17.648438 29.308594 17.5625 29.5625 17.5625 Z M 32.40625 20.40625 C 32.660156 20.40625 32.898438 20.492188 33.09375 20.6875 L 33.8125 21.40625 C 34.203125 21.796875 34.203125 22.421875 33.8125 22.8125 C 33.617188 23.007813 33.351563 23.09375 33.09375 23.09375 C 32.835938 23.09375 32.601563 23.007813 32.40625 22.8125 L 31.6875 22.09375 C 31.296875 21.703125 31.296875 21.078125 31.6875 20.6875 C 31.882813 20.492188 32.152344 20.40625 32.40625 20.40625 Z" fill="#f7002d"/></svg>
