<?xml version="1.0" encoding="utf-8"?>
<svg xmlns="http://www.w3.org/2000/svg" viewBox="0 0 50 50" fill="#ffffff"><path d="M 10 0 C 6.691406 0 4 2.691406 4 6 C 4 9.308594 6.691406 12 10 12 C 13.308594 12 16 9.308594 16 6 C 16 2.691406 13.308594 0 10 0 Z M 37 0 C 33.691406 0 31 2.691406 31 6 C 31 9.308594 33.691406 12 37 12 C 40.308594 12 43 9.308594 43 6 C 43 2.691406 40.308594 0 37 0 Z M 5.5 13 C 2.46875 13 0 15.46875 0 18.5 L 0 33 C 0 34.105469 0.898438 35 2 35 C 3.101563 35 4 34.105469 4 33 L 4 21 C 4 20.730469 4.230469 20.5 4.5 20.5 C 4.769531 20.5 5 20.730469 5 21 L 5 47.3125 C 5 48.875 5.839844 50 7.40625 50 C 8.886719 50 10 48.851563 10 47.3125 L 10 33.6875 C 10 33.410156 10.222656 33.1875 10.5 33.1875 C 10.777344 33.1875 11 33.410156 11 33.6875 L 11 47.59375 C 11.003906 47.601563 11.027344 47.585938 11.03125 47.59375 C 11.167969 48.976563 12.210938 50 13.59375 50 C 15.15625 50 16 48.875 16 47.3125 L 16 21 C 16 20.730469 16.230469 20.5 16.5 20.5 C 16.769531 20.5 17 20.730469 17 21 L 17 33 C 17 34.105469 17.898438 35 19 35 C 20.101563 35 21 34.105469 21 33 L 21 18.5 C 21 15.46875 18.53125 13 15.5 13 Z M 32 13 C 30.609375 12.90625 28.253906 13.898438 27.3125 16.78125 L 23.25 29.375 C 22.90625 30.425781 23.484375 31.5625 24.53125 31.90625 C 25.582031 32.25 26.71875 31.675781 27.0625 30.625 L 30.125 21.34375 C 30.207031 21.085938 30.492188 20.945313 30.75 21.03125 C 30.984375 21.105469 31.132813 21.355469 31.09375 21.59375 C 31.074219 21.628906 31.042969 21.648438 31.03125 21.6875 L 27.75 31.5 L 26.6875 34.65625 L 26.78125 34.5 C 26.679688 34.988281 26.640625 35.570313 27.03125 36.15625 C 27.066406 36.210938 27.140625 36.265625 27.1875 36.3125 C 27.449219 36.570313 27.976563 37 28.6875 37 L 31 37 L 31 47.3125 C 31 48.875 31.839844 50 33.40625 50 C 34.886719 50 36 48.851563 36 47.3125 L 36 37 L 37 37 L 37 47.59375 C 37.003906 47.601563 37.027344 47.585938 37.03125 47.59375 C 37.167969 48.976563 38.210938 50 39.59375 50 C 41.15625 50 42 48.875 42 47.3125 L 42 37 L 44.3125 37 C 45.023438 37 45.554688 36.570313 45.8125 36.3125 C 45.859375 36.265625 45.902344 36.210938 45.9375 36.15625 C 46.339844 35.550781 46.296875 34.9375 46.1875 34.4375 L 46.3125 34.65625 L 43.65625 26.8125 L 41.9375 21.6875 C 41.929688 21.664063 41.917969 21.648438 41.90625 21.625 C 41.84375 21.375 42 21.109375 42.25 21.03125 C 42.507813 20.945313 42.792969 21.085938 42.875 21.34375 L 45.96875 30.625 C 46.3125 31.675781 47.421875 32.25 48.46875 31.90625 C 49.515625 31.5625 50.09375 30.425781 49.75 29.375 L 45.6875 16.78125 C 44.746094 13.898438 42.390625 12.90625 41 13 Z" fill="#ffffff"/></svg>
