<?xml version="1.0" encoding="utf-8"?>
<svg xmlns="http://www.w3.org/2000/svg" viewBox="0 0 50 50" fill="#ffffff"><path d="M 23.28125 1 C 21.53125 1 19.886719 1.753906 18.75 3.0625 C 15.75 2.394531 13.007813 4.410156 12.34375 7.15625 C 11.703125 6.894531 11.007813 6.75 10.3125 6.75 C 7.296875 6.75 4.84375 9.21875 4.84375 12.25 C 4.84375 12.378906 4.863281 12.492188 4.875 12.625 C 2.660156 13.34375 1.0625 15.433594 1.0625 17.84375 C 1.0625 20.523438 3.003906 22.765625 5.53125 23.25 C 5.160156 23.957031 4.929688 24.734375 4.84375 25.53125 C 2.582031 26.234375 1 28.304688 1 30.75 C 1 33.921875 3.671875 36.539063 6.90625 36.25 C 7.636719 38.449219 9.695313 40 12.0625 40 C 13.707031 40 15.214844 39.261719 16.25 38 C 16.707031 38.09375 17.140625 38.15625 17.5625 38.15625 C 18.78125 38.15625 19.996094 37.835938 21.0625 37.25 C 22.59375 37.765625 24.289063 37.601563 25.6875 36.78125 C 26.488281 37.460938 27.5 37.8125 28.5625 37.8125 C 29.910156 37.8125 31.15625 37.222656 32 36.1875 C 33.6875 36.652344 35.519531 36.417969 37.0625 35.5625 C 38.054688 37.15625 39.824219 38.15625 41.71875 38.15625 C 44.734375 38.15625 47.1875 35.6875 47.1875 32.65625 C 47.1875 31.128906 46.558594 29.6875 45.46875 28.65625 C 47.570313 27.867188 49 25.824219 49 23.5 C 49 20.976563 47.289063 18.835938 44.90625 18.21875 C 44.398438 16.359375 42.957031 14.902344 41.15625 14.375 C 41.4375 13.710938 41.59375 13.003906 41.59375 12.28125 C 41.59375 9.25 39.140625 6.78125 36.125 6.78125 C 35.175781 6.78125 34.25 7.007813 33.4375 7.46875 C 32.488281 5.84375 30.777344 4.8125 28.84375 4.78125 C 27.941406 2.511719 25.761719 1 23.28125 1 Z M 25.5 39.0625 C 24.648438 39.378906 23.761719 39.53125 22.84375 39.53125 C 22.308594 39.53125 21.769531 39.484375 21.25 39.375 C 21.121094 39.429688 21.007813 39.480469 20.875 39.53125 C 20.953125 40.277344 21 41.109375 21 42 C 21 44.574219 19.414063 44.9375 16.78125 45.21875 C 15.394531 45.367188 14.1875 45.496094 13.625 46.4375 C 13.304688 46.972656 13.289063 47.625 13.59375 48.375 C 13.746094 48.753906 14.125 49 14.53125 49 L 35.4375 49 C 35.992188 49 36.4375 48.554688 36.4375 48 C 36.4375 46.101563 34.5 45.984375 33.34375 45.90625 C 31.300781 45.773438 30.054688 45.542969 30 42.96875 C 29.988281 42.421875 30.046875 41.003906 30.125 39.59375 C 29.609375 39.726563 29.105469 39.84375 28.5625 39.84375 C 27.496094 39.84375 26.429688 39.5625 25.5 39.0625 Z" fill="#ffffff"/></svg>
