<svg width="33" height="36" viewBox="0 0 33 36" fill="none" xmlns="http://www.w3.org/2000/svg">
<path fill-rule="evenodd" clip-rule="evenodd" d="M0.828125 11.3724H32.3023V10.0483H0.828125V11.3724Z" fill="#ED2B38"/>
<path fill-rule="evenodd" clip-rule="evenodd" d="M24.9407 13.7841H21.4616V26.1633H19.7972V17.764C19.7972 17.0607 19.7569 16.616 19.6263 16.1814C19.3742 15.3127 18.7888 14.3842 18.053 14.0115C17.6087 13.7841 17.0947 13.691 16.5602 13.691C15.9354 13.691 15.3499 13.8254 14.8563 14.1357C14.2003 14.5392 13.696 15.4159 13.4645 16.2644C13.3537 16.6573 13.3232 17.0914 13.3232 17.764V26.1633H11.6596V13.7841H8.18017V26.1633H6.53661L6.51608 13.7841H3.14776V26.1633H1.49401V13.7841H0.828125V12.4601H32.3022V13.7841H31.637V26.1633H29.9833V13.7841H26.5945V26.1633H24.9407V13.7841Z" fill="#ED2B38"/>
<path fill-rule="evenodd" clip-rule="evenodd" d="M1.2984 7.99546L2.26651 6.67141L3.22474 7.99546L2.26651 9.31952L1.2984 7.99546Z" fill="#ED2B38"/>
<path fill-rule="evenodd" clip-rule="evenodd" d="M5.68544 31.5465C6.2496 31.7949 6.73396 32.3951 6.73396 33.2638C6.73396 34.3811 6.13877 35.0945 5.38244 35.3117C4.91845 35.4566 4.43486 35.4566 3.99141 35.4566H1.29807V27.8954H4.15239C4.5054 27.8954 4.89885 27.9054 5.29215 28.0091C5.96791 28.1951 6.59273 28.7746 6.59273 29.8401C6.59273 30.8227 6.04833 31.2984 5.68544 31.495V31.5465ZM4.2024 31.1743C4.46527 31.1743 4.70667 31.1431 4.90857 31.0193C5.20092 30.8537 5.40297 30.502 5.40297 29.9745C5.40297 29.4573 5.16079 29.1158 4.80762 28.992C4.63692 28.9195 4.42499 28.8984 4.15239 28.8984H2.46824V31.1743H4.2024ZM5.5138 33.2638C5.5138 32.7156 5.25186 32.4052 4.93898 32.2708C4.73708 32.1879 4.5054 32.1673 4.3035 32.1673H2.46824V34.4636H4.28375C4.5054 34.4636 4.71733 34.443 4.88898 34.3811C5.28227 34.2256 5.5138 33.8636 5.5138 33.2638Z" fill="#ED2B38"/>
<path fill-rule="evenodd" clip-rule="evenodd" d="M7.08489 7.94359C6.83283 7.85049 6.65131 7.61253 6.65131 7.32328C6.65131 6.96104 6.93378 6.67131 7.29682 6.67131C7.64983 6.67131 7.9323 6.96104 7.9323 7.32328C7.9323 7.61253 7.76065 7.85049 7.50859 7.93346L8.12369 9.21619H6.46979L7.08489 7.94359Z" fill="#ED2B38"/>
<path fill-rule="evenodd" clip-rule="evenodd" d="M16.0711 34.3497L15.2845 35.4564H7.882L11.8957 27.8952H14.3565V34.3809L16.0711 34.3497ZM13.2069 34.4322V28.8157H12.4409L9.52588 34.4322H13.2069Z" fill="#ED2B38"/>
<path fill-rule="evenodd" clip-rule="evenodd" d="M11.6438 9.12122H21.4457V7.79717H11.6438V9.12122Z" fill="#ED2B38"/>
<path fill-rule="evenodd" clip-rule="evenodd" d="M14.6214 6.70974H18.5949V5.38569H14.6214V6.70974Z" fill="#ED2B38"/>
<path fill-rule="evenodd" clip-rule="evenodd" d="M15.0921 1.87566H18.017V0.561737H15.0921V1.87566Z" fill="#ED2B38"/>
<path fill-rule="evenodd" clip-rule="evenodd" d="M15.4057 2.97346H17.5637L16.4846 4.46295L15.4057 2.97346Z" fill="#ED2B38"/>
<path fill-rule="evenodd" clip-rule="evenodd" d="M23.8294 27.8952V35.4565H22.6593V31.9498H18.9182V35.4565H17.7579V27.8952H18.9182V30.9155H22.6593V27.8952H23.8294Z" fill="#ED2B38"/>
<path fill-rule="evenodd" clip-rule="evenodd" d="M25.5848 7.93346C25.3327 7.85049 25.1611 7.61253 25.1611 7.32328C25.1611 6.96104 25.4435 6.67131 25.7967 6.67131C26.1596 6.67131 26.4421 6.96104 26.4421 7.32328C26.4421 7.61253 26.2605 7.85049 26.0085 7.94359L26.6236 9.21619H24.9697L25.5848 7.93346Z" fill="#ED2B38"/>
<path fill-rule="evenodd" clip-rule="evenodd" d="M28.9481 32.3738L26.9216 35.4563H25.7514L28.3938 31.5568L25.8729 27.8951H27.2746L29.1098 30.5638L30.8539 27.8951H31.9837L29.6542 31.3706L32.4576 35.4563H31.0658L28.9481 32.3738Z" fill="#ED2B38"/>
<path fill-rule="evenodd" clip-rule="evenodd" d="M29.8269 7.99543L30.7851 6.67138L31.7532 7.99543L30.7851 9.31948L29.8269 7.99543Z" fill="#ED2B38"/>
</svg>
